<?xml version="1.0" encoding="UTF-8" standalone="no"?>
<!-- Created with Inkscape (http://www.inkscape.org/) -->

<svg
   xmlns:dc="http://purl.org/dc/elements/1.1/"
   xmlns:cc="http://creativecommons.org/ns#"
   xmlns:rdf="http://www.w3.org/1999/02/22-rdf-syntax-ns#"
   xmlns:svg="http://www.w3.org/2000/svg"
   xmlns="http://www.w3.org/2000/svg"
   xmlns:sodipodi="http://sodipodi.sourceforge.net/DTD/sodipodi-0.dtd"
   xmlns:inkscape="http://www.inkscape.org/namespaces/inkscape"
   id="svg33"
   sodipodi:version="0.32"
   inkscape:version="0.91 r13725"
   width="512"
   height="512"
   xml:space="preserve"
   sodipodi:docname="rxclient.svg"
   inkscape:output_extension="org.inkscape.output.svg.inkscape"
   version="1.0"
   inkscape:export-filename="/home/felfert/OpenNXArtwork/nx.png"
   inkscape:export-xdpi="57.599998"
   inkscape:export-ydpi="57.599998"><metadata
     id="metadata39"><rdf:RDF><cc:Work
         rdf:about=""><dc:format>image/svg+xml</dc:format><dc:type
           rdf:resource="http://purl.org/dc/dcmitype/StillImage" /><dc:title></dc:title></cc:Work></rdf:RDF></metadata><defs
     id="defs37"><inkscape:perspective
       sodipodi:type="inkscape:persp3d"
       inkscape:vp_x="0 : 100 : 1"
       inkscape:vp_y="0 : 1000 : 0"
       inkscape:vp_z="200 : 100 : 1"
       inkscape:persp3d-origin="100 : 66.666667 : 1"
       id="perspective10" /></defs><sodipodi:namedview
     pagecolor="#ffffff"
     bordercolor="#666666"
     borderopacity="1"
     objecttolerance="10"
     gridtolerance="10"
     guidetolerance="10"
     inkscape:pageopacity="0"
     inkscape:pageshadow="2"
     inkscape:window-width="1592"
     inkscape:window-height="1129"
     id="namedview35"
     showgrid="false"
     inkscape:zoom="1"
     inkscape:cx="167.90636"
     inkscape:cy="233.68127"
     inkscape:window-x="0"
     inkscape:window-y="0"
     inkscape:current-layer="g43"
     inkscape:snap-grids="false"
     inkscape:snap-to-guides="true"
     inkscape:showpageshadow="false"
     showborder="true"
     showguides="true"
     inkscape:guide-bbox="true"
     inkscape:snap-page="false"
     inkscape:window-maximized="0"><sodipodi:guide
       orientation="0,1"
       position="103.00001,466"
       id="guide439" /><sodipodi:guide
       orientation="1,0"
       position="255,351.99998"
       id="guide441" /></sodipodi:namedview><g
     id="g43"
     inkscape:groupmode="layer"
     inkscape:label="ink_ext_XXXXXX"
     transform="matrix(1.25,0,0,-1.25,-148.17329,760.21517)"><rect
       style="fill:#ffffff;fill-opacity:1"
       id="rect12"
       width="409.60001"
       height="409.60001"
       x="118.53864"
       y="-608.17212"
       transform="scale(1,-1)" /><g
       transform="scale(1,-1)"
       style="font-style:normal;font-weight:normal;font-size:305.38269043px;line-height:125%;font-family:'Bitstream Vera Sans';letter-spacing:0px;word-spacing:0px;fill:#244ba6;fill-opacity:1;stroke:none;stroke-width:1px;stroke-linecap:butt;stroke-linejoin:miter;stroke-opacity:1"
       id="text4138"><path
         d="m 147.11463,-287.74237 41.83742,0 0,-86.4233 59.24425,86.4233 51.60967,0 -61.07654,-83.36948 c 17.40682,-4.27535 25.95753,-8.24533 35.72978,-16.49066 15.26913,-13.13146 23.20908,-31.14903 23.20908,-53.44197 0,-22.9037 -8.24533,-42.4482 -23.81985,-55.57965 -14.65837,-12.52069 -30.84365,-16.79605 -61.6873,-16.79605 l -65.04651,0 0,225.67781 z m 41.83742,-117.87772 0,-67.79496 18.62835,0 c 19.54449,0 30.23288,2.13768 36.9513,7.93995 7.32919,5.80227 10.99378,14.65837 10.99378,25.65215 0,23.81985 -13.74222,34.20286 -46.11279,34.20286 l -20.46064,0 z"
         style="font-style:normal;font-variant:normal;font-weight:600;font-stretch:normal;font-family:'URW Gothic L';-inkscape-font-specification:'URW Gothic L Semi-Bold';fill:#244ba6;fill-opacity:1"
         id="path4143" /><path
         d="m 305.02133,-287.74237 49.77738,0 52.52582,-77.87259 54.05274,77.87259 48.55584,0 -78.17796,-112.38083 78.17796,-113.29698 -48.55584,0 -54.05274,78.78874 -52.52582,-78.78874 -49.77738,0 77.5672,113.29698 -77.5672,112.38083 z"
         style="font-style:normal;font-variant:normal;font-weight:600;font-stretch:normal;font-family:'URW Gothic L';-inkscape-font-specification:'URW Gothic L Semi-Bold';fill:#244ba6;fill-opacity:1"
         id="path4145" /></g></g></svg>